<?xml version="1.0" standalone="no"?>
<!DOCTYPE svg PUBLIC "-//W3C//DTD SVG 20010904//EN"
 "http://www.w3.org/TR/2001/REC-SVG-20010904/DTD/svg10.dtd">
<svg version="1.0" xmlns="http://www.w3.org/2000/svg"
 width="512.000000pt" height="512.000000pt" viewBox="0 0 512.000000 512.000000"
 preserveAspectRatio="xMidYMid meet">
<metadata>
Created by potrace 1.16, written by Peter Selinger 2001-2019
</metadata>
<g transform="translate(0.000000,512.000000) scale(0.100000,-0.100000)"
fill="none" stroke="#000000">
<path d="M0 2560 l0 -2560 810 0 810 0 0 880 0 880 -795 0 -795 0 0 90 0 90
795 0 795 0 0 750 0 750 -795 0 -795 0 0 85 0 85 795 0 795 0 0 755 0 755
-810 0 -810 0 0 -2560z m413 2389 c12 -6 122 -111 244 -232 l223 -222 227 227
c126 124 238 229 251 233 58 17 112 -25 112 -89 0 -39 -7 -47 -230 -271 l-230
-230 230 -230 c219 -219 230 -233 230 -269 0 -20 -4 -45 -10 -55 -13 -26 -64
-45 -97 -36 -18 4 -109 87 -256 233 l-227 227 -228 -228 c-195 -195 -233 -228
-264 -234 -32 -5 -41 -1 -68 25 -23 23 -30 40 -30 68 0 35 12 50 230 268 l229
231 -229 230 c-212 213 -230 234 -230 266 0 71 65 117 123 88z m239 -1906
l228 -228 227 227 c147 146 238 229 256 233 33 9 84 -10 97 -36 6 -10 10 -35
10 -55 0 -36 -12 -50 -230 -269 l-230 -230 230 -230 c224 -225 230 -232 230
-271 0 -64 -58 -106 -116 -84 -16 6 -129 111 -251 233 l-223 222 -222 -222
c-123 -121 -233 -226 -246 -233 -54 -27 -122 21 -122 88 0 34 16 52 230 267
l229 230 -229 231 c-225 225 -230 232 -230 271 0 34 6 46 32 68 61 52 74 44
330 -212z m372 -1463 c114 -29 190 -73 276 -160 119 -119 170 -243 170 -413 0
-165 -56 -303 -170 -418 -75 -75 -191 -140 -286 -159 -85 -18 -256 -8 -328 18
-173 63 -315 206 -367 371 -29 92 -36 237 -15 321 68 272 299 456 577 459 36
1 101 -8 143 -19z"/>
<path d="M760 1401 c-109 -35 -209 -124 -258 -229 -23 -50 -27 -70 -27 -162 0
-97 2 -110 31 -170 60 -126 159 -206 291 -236 94 -21 177 -10 268 35 273 135
307 517 62 698 -106 78 -248 103 -367 64z"/>
<path d="M1800 4365 l0 -755 750 0 750 0 0 755 0 755 -750 0 -750 0 0 -755z
m949 559 c151 -50 272 -156 341 -299 45 -94 60 -159 60 -260 0 -102 -15 -166
-62 -263 -67 -142 -190 -248 -348 -303 -94 -32 -257 -33 -355 0 -161 53 -285
159 -353 303 -47 97 -62 161 -62 263 0 96 15 164 55 250 80 175 244 300 440
335 76 14 199 2 284 -26z"/>
<path d="M2465 4766 c-117 -29 -224 -116 -278 -225 -30 -62 -32 -72 -32 -176
0 -104 2 -114 32 -176 41 -83 121 -159 210 -202 62 -29 77 -32 163 -32 86 0
101 3 163 32 89 43 169 119 210 202 30 62 32 72 32 176 0 104 -2 114 -32 176
-86 175 -284 270 -468 225z"/>
<path d="M3480 4365 l0 -755 805 0 805 0 0 -85 0 -85 -805 0 -805 0 0 -750 0
-750 805 0 805 0 0 -90 0 -90 -805 0 -805 0 0 -880 0 -880 820 0 820 0 0 2560
0 2560 -820 0 -820 0 0 -755z m293 584 c12 -6 122 -111 245 -232 l222 -222
223 222 c122 121 232 226 245 233 54 27 122 -21 122 -88 0 -34 -16 -52 -230
-267 l-229 -230 229 -231 c218 -218 230 -233 230 -268 0 -28 -7 -45 -30 -68
-27 -26 -36 -30 -68 -25 -31 6 -69 39 -264 234 l-228 228 -227 -227 c-147
-146 -238 -229 -256 -233 -33 -9 -84 10 -97 36 -6 10 -10 35 -10 55 0 36 11
50 230 269 l230 230 -230 230 c-223 224 -230 232 -230 270 1 73 62 115 123 84z
m649 -1700 c96 -32 166 -76 239 -149 190 -192 223 -505 78 -730 -114 -177
-293 -274 -504 -273 -84 0 -113 5 -185 30 -47 16 -112 46 -143 67 -111 74
-207 210 -241 342 -20 79 -20 219 0 297 55 213 230 384 444 432 86 20 228 13
312 -16z m-415 -1881 l233 -232 233 232 c246 245 254 250 310 220 33 -17 46
-39 47 -78 0 -31 -18 -52 -232 -267 l-232 -233 232 -233 c216 -217 232 -235
232 -269 0 -21 -9 -46 -21 -62 -17 -21 -29 -26 -67 -26 l-46 0 -231 230 -230
230 -230 -230 c-222 -222 -231 -230 -269 -230 -55 0 -86 30 -86 84 0 39 6 46
230 271 l230 230 -230 230 c-228 229 -230 231 -230 273 0 57 33 92 87 92 35 0
49 -12 270 -232z"/>
<path d="M4132 3085 c-300 -84 -405 -454 -192 -679 149 -158 383 -177 550 -45
247 195 201 567 -86 701 -79 37 -190 46 -272 23z"/>
<path d="M1800 2690 l0 -750 750 0 750 0 0 750 0 750 -750 0 -750 0 0 -750z
m885 575 c172 -36 328 -158 403 -316 47 -98 62 -162 62 -264 0 -102 -15 -166
-62 -264 -95 -199 -299 -324 -528 -324 -229 0 -433 125 -528 324 -47 98 -62
162 -62 264 0 102 15 166 62 264 115 241 386 372 653 316z"/>
<path d="M2460 3086 c-117 -31 -227 -124 -278 -233 -24 -52 -27 -69 -27 -168
0 -100 2 -115 28 -167 83 -170 270 -272 440 -240 136 26 252 114 314 240 26
52 28 67 28 167 0 99 -3 116 -27 168 -85 181 -295 283 -478 233z"/>
<path d="M1800 880 l0 -880 750 0 750 0 0 880 0 880 -750 0 -750 0 0 -880z
m527 488 l233 -232 234 233 235 234 43 -6 c54 -7 78 -35 78 -90 0 -39 -6 -46
-230 -271 l-229 -231 229 -230 c214 -215 230 -233 230 -267 0 -21 -9 -46 -21
-62 -17 -21 -29 -26 -66 -26 l-46 0 -229 227 -228 227 -228 -227 -229 -227
-46 0 c-37 0 -49 5 -66 26 -12 16 -21 41 -21 62 0 34 16 52 230 267 l229 230
-229 231 c-218 218 -230 233 -230 268 0 65 28 94 95 95 25 1 61 -31 262 -231z"/>
</g>
</svg>
